# xmcd CD database file
#
# Track frame offsets:
#	150
#	17229
#	32561
#	47130
#	60572
#	76349
#	89474
#	110659
#	129523
#	146795
#	163049
#	177297
#	195568
#	209636
#	227347
#	250874
#
# Disc length: 3487 seconds
#
# Revision: 0
# Processed by: cddbd v1.5.2PL0 Copyright (c) Steve Scherf et al.
# Submitted via: CDex 1.70beta2
#
DISCID=dc0d9d10
DTITLE=Nick McAlley - Sunny Side Up
DYEAR=2004
DGENRE=Country
TTITLE0=Keep On The Sunny Side
TTITLE1=500 Miles
TTITLE2=Join
TTITLE3=Angel Flying Too Close To The Ground
TTITLE4=Mandolin Picker
TTITLE5=Old Nickelodeon Sound
TTITLE6=Native American
TTITLE7=New Moon
TTITLE8=Never Givin' Up On Love
TTITLE9=Hope, Faith and Love
TTITLE10=Peaches On A Cherrytree
TTITLE11=Shangri-La
TTITLE12=I Got A Name
TTITLE13=Mandolomania
TTITLE14=I Can See Clearly Now
TTITLE15=[Datatrack]
EXTD=YEAR: 2004
EXTT0=
EXTT1=
EXTT2=
EXTT3=
EXTT4=
EXTT5=
EXTT6=
EXTT7=
EXTT8=
EXTT9=
EXTT10=
EXTT11=
EXTT12=
EXTT13=
EXTT14=
EXTT15=
PLAYORDER=
